# xmcd CD database file
#
# Track frame offsets:
#	150
#	13564
#	24994
#	37655
#	51631
#	64265
#	76761
#	89840
#	103441
#	116517
#	127110
#	139640
#	151827
#	164534
#	177458
#	188007
#	198628
#	211099
#	220853
#	234197
#	247407
#	260523
#	272620
#	287012
#	297563
#	309320
#
# Disc length: 4262 seconds
#
# Revision: 0
# Processed by: cddbd v1.5.2PL0 Copyright (c) Steve Scherf et al.
# Submitted via: CDex 2.13
#
DISCID=8410a41a
DTITLE=Elton Britt - St. Louis Blues Yodel - Vol. 4 1944-55
DYEAR=2019
DGENRE=Country
TTITLE0=The Best Part Of Travel
TTITLE1=Blue Eyes Cryin' In The Rain
TTITLE2=Castle In The Apple Tree
TTITLE3=Don't Bring Your Blues To Me
TTITLE4=Roses Of Yesterday
TTITLE5=Tears In The Sky
TTITLE6=I'll Find You
TTITLE7=(Remember Me) I'm The One Who Loves You
TTITLE8=Lost And Found Blues
TTITLE9=It Takes Two Of A Kind (To Make A Pair)
TTITLE10=My Dearest, My Darling
TTITLE11=Rotation Blues
TTITLE12=Don't Ever Be Afraid To Go Home
TTITLE13=The Little Boy I Knew
TTITLE14=(The Angels Are Lighting) God's Little Candle
TTITLE15=I'm Gonna Walk And Talk With My Lord
TTITLE16=If You Should Change Your Mind
TTITLE17=The Rovin' Gambler (Lover's Hand In Hearts)
TTITLE18=Just For You
TTITLE19=Koren Mud
TTITLE20=My Heart Was Made For You
TTITLE21=Hurts Me To My Heart
TTITLE22=Goodnight Mrs. Jones
TTITLE23=St Louis Blues Yodel
TTITLE24=Shame
TTITLE25=St. James Avenue
EXTD=YEAR: 2019
EXTT0=
EXTT1=
EXTT2=
EXTT3=
EXTT4=
EXTT5=
EXTT6=
EXTT7=
EXTT8=
EXTT9=
EXTT10=
EXTT11=
EXTT12=
EXTT13=
EXTT14=
EXTT15=
EXTT16=
EXTT17=
EXTT18=
EXTT19=
EXTT20=
EXTT21=
EXTT22=
EXTT23=
EXTT24=
EXTT25=
PLAYORDER=
